<svg xmlns="http://www.w3.org/2000/svg" version="1.1" xmlns:xlink="http://www.w3.org/1999/xlink" xmlns:svgjs="http://svgjs.dev/svgjs" width="1500" height="939" viewBox="0 0 1500 939"><g transform="matrix(1,0,0,1,-0.9090909090909918,-1.5145161290322449)"><svg viewBox="0 0 396 248" data-background-color="#ffffff" preserveAspectRatio="xMidYMid meet" height="939" width="1500" xmlns="http://www.w3.org/2000/svg" xmlns:xlink="http://www.w3.org/1999/xlink"><g id="tight-bounds" transform="matrix(1,0,0,1,0.2400000000000091,0.4000000000000057)"><svg viewBox="0 0 395.52 247.2" height="247.2" width="395.52"><g><svg></svg></g><g><svg viewBox="0 0 395.52 247.2" height="247.2" width="395.52"><g transform="matrix(1,0,0,1,75.54432,83.35800286990815)"><svg viewBox="0 0 244.43135999999998 80.4839942601837" height="80.4839942601837" width="244.43135999999998"><g><svg viewBox="0 0 244.43135999999998 80.4839942601837" height="80.4839942601837" width="244.43135999999998"><g><svg viewBox="0 0 244.43135999999998 80.4839942601837" height="80.4839942601837" width="244.43135999999998"><g><svg viewBox="0 0 244.43135999999998 80.4839942601837" height="80.4839942601837" width="244.43135999999998"><g id="textblocktransform"><svg viewBox="0 0 244.43135999999998 80.4839942601837" height="80.4839942601837" width="244.43135999999998" id="textblock"><g><svg viewBox="0 0 244.43135999999998 53.67785449131513" height="53.67785449131513" width="244.43135999999998"><g transform="matrix(1,0,0,1,0,0)"><svg width="244.43135999999998" viewBox="2 -35 161.18 35.4" height="53.67785449131513" data-palette-color="#ffe430"><path d="M2 0L2-1.65 21.8-31.85 2.9-31.85 2.9-35 26.9-35 26.9-33.35 7.1-3.15 26.4-3.15 26.4 0 2 0ZM35.4-28.7Q34.2-28.7 33.45-29.45 32.7-30.2 32.7-31.4L32.7-31.4Q32.7-32.6 33.45-33.35 34.2-34.1 35.4-34.1L35.4-34.1Q36.6-34.1 37.35-33.35 38.1-32.6 38.1-31.4L38.1-31.4Q38.1-30.2 37.35-29.45 36.6-28.7 35.4-28.7L35.4-28.7ZM33.6 0L33.6-24.95 37.2-24.95 37.2 0 33.6 0ZM53.45 0.4Q50.9 0.4 48.9-0.8 46.9-2 45.8-4.15 44.7-6.3 44.7-9.15L44.7-9.15 44.7-15.15Q44.7-18.15 45.85-20.48 47-22.8 49.1-24.08 51.2-25.35 53.9-25.35L53.9-25.35 57.6-25.35Q59.3-25.35 60.87-24.55 62.45-23.75 63.4-22.35L63.4-22.35 63.4-35 67-35 67 0 63.5 0 63.5-3.7Q62.35-1.85 60.5-0.73 58.65 0.4 56.9 0.4L56.9 0.4 53.45 0.4ZM53.55-2.8L56.8-2.8Q58.4-2.8 59.9-3.83 61.4-4.85 62.35-6.5 63.3-8.15 63.4-9.9L63.4-9.9 63.4-16.2Q63.05-18.85 61.42-20.5 59.8-22.15 57.5-22.15L57.5-22.15 54-22.15Q51.45-22.15 49.87-20.23 48.3-18.3 48.3-15.15L48.3-15.15 48.3-9.15Q48.3-6.35 49.77-4.58 51.25-2.8 53.55-2.8L53.55-2.8ZM81.79 0.4Q78.14 0.4 75.97-1.5 73.79-3.4 73.79-6.6L73.79-6.6 73.79-8.2Q73.79-11.35 76.04-13.25 78.29-15.15 81.99-15.15L81.99-15.15 85.19-15.15Q86.84-15.15 88.59-14.65 90.34-14.15 91.59-13.3L91.59-13.3 91.59-17.45Q91.59-19.55 90.29-20.88 88.99-22.2 86.84-22.2L86.84-22.2 82.84-22.2Q80.69-22.2 79.39-21.2 78.09-20.2 78.09-18.55L78.09-18.55 74.49-18.55Q74.49-21.6 76.79-23.48 79.09-25.35 82.84-25.35L82.84-25.35 86.84-25.35Q90.54-25.35 92.82-23.18 95.09-21 95.09-17.45L95.09-17.45 95.09 0 91.69 0 91.69-3.5Q90.54-1.7 88.67-0.65 86.79 0.4 84.79 0.4L84.79 0.4 81.79 0.4ZM81.79-2.75L84.89-2.75Q87.24-2.75 89.09-4.2 90.94-5.65 91.59-8.05L91.59-8.05 91.59-9.9Q90.59-10.85 88.82-11.43 87.04-12 85.19-12L85.19-12 81.99-12Q79.94-12 78.67-10.95 77.39-9.9 77.39-8.2L77.39-8.2 77.39-6.6Q77.39-4.85 78.59-3.8 79.79-2.75 81.79-2.75L81.79-2.75ZM109.29 0Q105.59 0 103.99-1.58 102.39-3.15 102.39-6.8L102.39-6.8 102.39-35 105.99-35 105.99-6.8Q105.99-4.9 106.77-4.05 107.54-3.2 109.29-3.2L109.29-3.2 110.99-3.2 110.99 0 109.29 0ZM122.39 0Q118.69 0 117.09-1.58 115.49-3.15 115.49-6.8L115.49-6.8 115.49-35 119.09-35 119.09-6.8Q119.09-4.9 119.86-4.05 120.64-3.2 122.39-3.2L122.39-3.2 124.09-3.2 124.09 0 122.39 0ZM131.59-28.7Q130.39-28.7 129.64-29.45 128.89-30.2 128.89-31.4L128.89-31.4Q128.89-32.6 129.64-33.35 130.39-34.1 131.59-34.1L131.59-34.1Q132.79-34.1 133.54-33.35 134.29-32.6 134.29-31.4L134.29-31.4Q134.29-30.2 133.54-29.45 132.79-28.7 131.59-28.7L131.59-28.7ZM129.79 0L129.79-24.95 133.39-24.95 133.39 0 129.79 0ZM150.18 0.4Q145.98 0.4 143.43-2.08 140.88-4.55 140.88-8.65L140.88-8.65 140.88-15.8Q140.88-20.1 143.43-22.73 145.98-25.35 150.18-25.35L150.18-25.35 154.28-25.35Q158.28-25.35 160.73-22.8 163.18-20.25 163.18-16.05L163.18-16.05 163.18-11.65 144.48-11.65 144.48-8.65Q144.48-6.05 146.06-4.42 147.63-2.8 150.18-2.8L150.18-2.8 153.98-2.8Q156.48-2.8 158.03-4.17 159.58-5.55 159.58-7.85L159.58-7.85 163.08-7.85Q163.08-4.15 160.58-1.88 158.08 0.4 153.98 0.4L153.98 0.4 150.18 0.4ZM144.48-14.75L159.58-14.75 159.58-16.05Q159.58-18.8 158.13-20.48 156.68-22.15 154.28-22.15L154.28-22.15 150.18-22.15Q147.63-22.15 146.06-20.4 144.48-18.65 144.48-15.8L144.48-15.8 144.48-14.75Z" opacity="1" transform="matrix(1,0,0,1,0,0)" fill="#ffe430" class="wordmark-text-0" data-fill-palette-color="primary" id="text-0"></path></svg></g></svg></g><g transform="matrix(1,0,0,1,0,66.34990766820684)"><svg viewBox="0 0 244.43135999999998 14.134086591976867" height="14.134086591976867" width="244.43135999999998"><g transform="matrix(1,0,0,1,0,0)"><svg width="244.43135999999998" viewBox="2 -36.5 830.1 48" height="14.134086591976867" data-palette-color="#ffe430"><path d="M21.9-33.7L20.6-30.25Q17.1-31.45 14.1-31.45 11.1-31.45 9.2-29.9 7.3-28.35 7.3-26.15L7.3-26.15Q7.3-23 10.65-21.2L10.65-21.2 17.7-17.3Q23.6-14 23.6-8.8L23.6-8.8Q23.6-4.5 20.55-1.95 17.5 0.6 11.95 0.6 6.4 0.6 2-1.4L2-1.4 3.25-4.9Q7.35-3.1 11.33-3.1 15.3-3.1 17.2-4.65 19.1-6.2 19.1-8.4L19.1-8.4Q19.1-11.55 15.75-13.35L15.75-13.35 8.7-17.25Q2.8-20.55 2.8-25.75L2.8-25.75Q2.8-30.05 5.85-32.6 8.9-35.15 14.05-35.15L14.05-35.15Q17.55-35.15 21.9-33.7L21.9-33.7ZM41.7-13.65L41.7-13.65 41.7-15.85Q41.7-19.9 37.5-19.9L37.5-19.9Q34.2-19.9 30.6-17.75L30.6-17.75 29.15-20.75Q33.35-23.4 38.2-23.4L38.2-23.4Q41.6-23.4 43.78-21.68 45.95-19.95 45.95-16.35L45.95-16.35 45.95 0 43.25 0 42-3Q40.4-1.35 38.2-0.38 36 0.6 34.2 0.6L34.2 0.6Q31.1 0.6 29.25-1.1 27.4-2.8 27.4-5.55L27.4-5.55Q27.4-13.65 41.7-13.65ZM33.4-8.8Q32.45-7.95 32.13-7.28 31.8-6.6 31.8-5.53 31.8-4.45 32.73-3.68 33.65-2.9 35.15-2.9L35.15-2.9Q38.3-2.9 41.7-5.7L41.7-5.7 41.7-10.7Q35.4-10.6 33.4-8.8L33.4-8.8ZM50.7-22.8L54.1-22.8 54.1-28.85Q54.1-32.55 55.85-34.52 57.6-36.5 60.43-36.5 63.25-36.5 66.45-35L66.45-35 65-32Q62.8-32.9 61.2-32.9L61.2-32.9Q58.2-32.9 58.2-28.9L58.2-28.9 58.2-22.8 64.4-22.8 64.4-19.65 58.2-19.65 58.2 0 54.1 0 54.1-19.65 50.7-19.65 50.7-22.8ZM77.1-2.9L77.1-2.9Q80.7-2.9 84.3-5.05L84.3-5.05 85.75-2.05Q81.55 0.6 76.78 0.6 72 0.6 69.2-2.43 66.4-5.45 66.4-11.15 66.4-16.85 69.3-20.13 72.2-23.4 77-23.4L77-23.4Q81.35-23.4 83.85-20.7L83.85-20.7Q84.9-19.6 85.63-17.5 86.35-15.4 86.35-12.55L86.35-12.55 84.8-10.8 70.65-10.8Q70.8-2.9 77.1-2.9ZM82.15-13.95Q82.15-16.75 80.7-18.45 79.25-20.15 76.88-20.15 74.5-20.15 72.85-18.48 71.2-16.8 70.85-13.95L70.85-13.95 82.15-13.95ZM117.6-13.65L117.6-13.65 117.6-15.85Q117.6-19.9 113.4-19.9L113.4-19.9Q110.1-19.9 106.5-17.75L106.5-17.75 105.05-20.75Q109.25-23.4 114.1-23.4L114.1-23.4Q117.5-23.4 119.68-21.68 121.85-19.95 121.85-16.35L121.85-16.35 121.85 0 119.15 0 117.9-3Q116.3-1.35 114.1-0.38 111.9 0.6 110.1 0.6L110.1 0.6Q107 0.6 105.15-1.1 103.3-2.8 103.3-5.55L103.3-5.55Q103.3-13.65 117.6-13.65ZM109.3-8.8Q108.35-7.95 108.03-7.28 107.7-6.6 107.7-5.53 107.7-4.45 108.63-3.68 109.55-2.9 111.05-2.9L111.05-2.9Q114.2-2.9 117.6-5.7L117.6-5.7 117.6-10.7Q111.3-10.6 109.3-8.8L109.3-8.8ZM148.45-17.25L148.45-17.25 148.45 0 144.2 0 144.2-17.05Q144.2-18.35 143.18-19.05 142.15-19.75 140.45-19.75L140.45-19.75Q136.9-19.75 133.1-17.2L133.1-17.2 133.1 0 128.85 0 128.85-22.8 131.55-22.8 132.8-20.2Q136.65-23.4 141.15-23.4L141.15-23.4Q144.5-23.4 146.48-21.7 148.45-20 148.45-17.25ZM170.8-21.9L170.8-35.9 174.9-35.9 174.9 0 172.2 0 170.95-3Q167.2 0.6 163.23 0.6 159.25 0.6 156.65-2.48 154.05-5.55 154.05-10.8 154.05-16.05 157.15-19.58 160.25-23.1 165.15-23.1L165.15-23.1Q167.8-23.1 170.8-21.9L170.8-21.9ZM166.2-19.7L166.2-19.7Q162.45-19.7 160.4-17.15 158.35-14.6 158.35-10.95 158.35-7.3 160.05-5.1 161.75-2.9 164.45-2.9L164.45-2.9Q165.95-2.9 167.68-3.73 169.4-4.55 170.8-6L170.8-6 170.8-18.8Q168.45-19.7 166.2-19.7ZM205.25-14.05L199.85-14.05 199.85 0 195.55 0 195.55-34.55 204.65-34.55Q209.75-34.55 213.1-31.83 216.45-29.1 216.45-24.25L216.45-24.25Q216.45-20.75 214.6-18.32 212.75-15.9 209.6-14.8L209.6-14.8Q212.2-11.8 219.25 0L219.25 0 214.05 0Q207.1-12 205.25-14.05L205.25-14.05ZM199.85-30.75L199.85-17.75 204.65-17.75Q208.1-17.75 209.98-19.45 211.85-21.15 211.85-24.25 211.85-27.35 209.98-29.05 208.1-30.75 204.65-30.75L204.65-30.75 199.85-30.75ZM231-2.9L231-2.9Q234.6-2.9 238.2-5.05L238.2-5.05 239.65-2.05Q235.45 0.6 230.68 0.6 225.9 0.6 223.1-2.43 220.3-5.45 220.3-11.15 220.3-16.85 223.2-20.13 226.1-23.4 230.9-23.4L230.9-23.4Q235.25-23.4 237.75-20.7L237.75-20.7Q238.8-19.6 239.53-17.5 240.25-15.4 240.25-12.55L240.25-12.55 238.7-10.8 224.55-10.8Q224.7-2.9 231-2.9ZM236.05-13.95Q236.05-16.75 234.6-18.45 233.15-20.15 230.78-20.15 228.4-20.15 226.75-18.48 225.1-16.8 224.75-13.95L224.75-13.95 236.05-13.95ZM245.3 0L245.3-35.9 249.4-35.9 249.4 0 245.3 0ZM260.85-28.18Q260.05-27.35 258.9-27.35 257.75-27.35 256.95-28.18 256.15-29 256.15-30.15 256.15-31.3 256.98-32.13 257.8-32.95 258.9-32.95 260-32.95 260.82-32.13 261.65-31.3 261.65-30.15 261.65-29 260.85-28.18ZM256.8 0L256.8-22.8 261.05-22.8 261.05 0 256.8 0ZM281.15-13.65L281.15-13.65 281.15-15.85Q281.15-19.9 276.95-19.9L276.95-19.9Q273.65-19.9 270.05-17.75L270.05-17.75 268.6-20.75Q272.8-23.4 277.65-23.4L277.65-23.4Q281.05-23.4 283.23-21.68 285.4-19.95 285.4-16.35L285.4-16.35 285.4 0 282.7 0 281.45-3Q279.85-1.35 277.65-0.38 275.45 0.6 273.65 0.6L273.65 0.6Q270.55 0.6 268.7-1.1 266.85-2.8 266.85-5.55L266.85-5.55Q266.85-13.65 281.15-13.65ZM272.85-8.8Q271.9-7.95 271.57-7.28 271.25-6.6 271.25-5.53 271.25-4.45 272.18-3.68 273.1-2.9 274.6-2.9L274.6-2.9Q277.75-2.9 281.15-5.7L281.15-5.7 281.15-10.7Q274.85-10.6 272.85-8.8L272.85-8.8ZM300.95-2.8L300.95-2.8Q304.7-2.8 306.75-5.35 308.8-7.9 308.8-11.5 308.8-15.1 307-17.28 305.2-19.45 302.38-19.45 299.55-19.45 296.35-17.75L296.35-17.75 296.35-3.7Q298.7-2.8 300.95-2.8ZM292.25-35.9L296.35-35.9 296.35-20.95Q300.15-23.1 304.03-23.1 307.9-23.1 310.5-19.98 313.1-16.85 313.1-11.8 313.1-6.75 310.07-3.08 307.05 0.6 301.45 0.6L301.45 0.6Q297.15 0.6 292.25-1.6L292.25-1.6 292.25-35.9ZM318.5 0L318.5-35.9 322.6-35.9 322.6 0 318.5 0ZM338.75-2.9L338.75-2.9Q342.35-2.9 345.95-5.05L345.95-5.05 347.4-2.05Q343.2 0.6 338.43 0.6 333.65 0.6 330.85-2.43 328.05-5.45 328.05-11.15 328.05-16.85 330.95-20.13 333.85-23.4 338.65-23.4L338.65-23.4Q343-23.4 345.5-20.7L345.5-20.7Q346.55-19.6 347.27-17.5 348-15.4 348-12.55L348-12.55 346.45-10.8 332.3-10.8Q332.45-2.9 338.75-2.9ZM343.8-13.95Q343.8-16.75 342.35-18.45 340.9-20.15 338.52-20.15 336.15-20.15 334.5-18.48 332.85-16.8 332.5-13.95L332.5-13.95 343.8-13.95ZM379.7-21.9L378.45-18.8Q375.9-19.9 373.65-19.9L373.65-19.9Q369.3-19.9 369.3-17.25L369.3-17.25Q369.3-14.95 375.1-12.8L375.1-12.8Q377.25-12 379.07-10.3 380.9-8.6 380.9-6.2L380.9-6.2Q380.9-2.75 378.65-1.07 376.4 0.6 372.4 0.6 368.4 0.6 364.6-1.6L364.6-1.6 365.85-4.7Q369-2.9 373-2.9L373-2.9Q374.7-2.9 375.75-3.63 376.8-4.35 376.8-5.6 376.8-6.85 375.6-7.75 374.4-8.65 372.7-9.35 371-10.05 369.3-10.88 367.6-11.7 366.4-13.2 365.2-14.7 365.2-16.75L365.2-16.75Q365.2-19.95 367.38-21.68 369.55-23.4 372.9-23.4 376.25-23.4 379.7-21.9L379.7-21.9ZM397.5-19.65L391.05-19.65 391.05-5.95Q391.05-2.95 393.9-2.95L393.9-2.95Q395.55-2.95 397.85-3.9L397.85-3.9 398.4-0.55Q395.95 0.6 393.25 0.6 390.55 0.6 388.75-1.03 386.95-2.65 386.95-6L386.95-6 386.95-19.65 383.8-19.65 383.8-22.8 386.95-22.8 386.95-27.3 390.05-30.15 391.05-30.15 391.05-22.8 397.5-22.8 397.5-19.65ZM402.7-22.8L406.95-22.8 406.95-5.85Q406.95-4.45 407.97-3.68 409-2.9 410.65-2.9L410.65-2.9Q414.2-2.9 417.95-5.7L417.95-5.7 417.95-22.8 422.2-22.8 422.2 0 419.5 0 418.25-3Q414.4 0.6 409.7 0.6L409.7 0.6Q406.7 0.6 404.7-1 402.7-2.6 402.7-5.65L402.7-5.65 402.7-22.8ZM444.75-21.9L444.75-35.9 448.85-35.9 448.85 0 446.15 0 444.9-3Q441.15 0.6 437.17 0.6 433.2 0.6 430.6-2.48 428-5.55 428-10.8 428-16.05 431.1-19.58 434.2-23.1 439.1-23.1L439.1-23.1Q441.75-23.1 444.75-21.9L444.75-21.9ZM440.15-19.7L440.15-19.7Q436.4-19.7 434.35-17.15 432.3-14.6 432.3-10.95 432.3-7.3 434-5.1 435.7-2.9 438.4-2.9L438.4-2.9Q439.9-2.9 441.62-3.73 443.35-4.55 444.75-6L444.75-6 444.75-18.8Q442.4-19.7 440.15-19.7ZM465-2.9L465-2.9Q468.6-2.9 472.2-5.05L472.2-5.05 473.65-2.05Q469.45 0.6 464.67 0.6 459.9 0.6 457.1-2.43 454.3-5.45 454.3-11.15 454.3-16.85 457.2-20.13 460.1-23.4 464.9-23.4L464.9-23.4Q469.25-23.4 471.75-20.7L471.75-20.7Q472.8-19.6 473.52-17.5 474.25-15.4 474.25-12.55L474.25-12.55 472.7-10.8 458.55-10.8Q458.7-2.9 465-2.9ZM470.05-13.95Q470.05-16.75 468.6-18.45 467.15-20.15 464.77-20.15 462.4-20.15 460.75-18.48 459.1-16.8 458.75-13.95L458.75-13.95 470.05-13.95ZM499.1-17.25L499.1-17.25 499.1 0 494.85 0 494.85-17.05Q494.85-18.35 493.82-19.05 492.8-19.75 491.1-19.75L491.1-19.75Q487.55-19.75 483.75-17.2L483.75-17.2 483.75 0 479.5 0 479.5-22.8 482.2-22.8 483.45-20.2Q487.3-23.4 491.8-23.4L491.8-23.4Q495.15-23.4 497.12-21.7 499.1-20 499.1-17.25ZM517.65-19.65L511.2-19.65 511.2-5.95Q511.2-2.95 514.05-2.95L514.05-2.95Q515.7-2.95 518-3.9L518-3.9 518.55-0.55Q516.1 0.6 513.4 0.6 510.7 0.6 508.9-1.03 507.1-2.65 507.1-6L507.1-6 507.1-19.65 503.95-19.65 503.95-22.8 507.1-22.8 507.1-27.3 510.2-30.15 511.2-30.15 511.2-22.8 517.65-22.8 517.65-19.65ZM548.1-19.65L541.65-19.65 541.65-5.95Q541.65-2.95 544.5-2.95L544.5-2.95Q546.15-2.95 548.45-3.9L548.45-3.9 549-0.55Q546.55 0.6 543.85 0.6 541.15 0.6 539.35-1.03 537.55-2.65 537.55-6L537.55-6 537.55-19.65 534.4-19.65 534.4-22.8 537.55-22.8 537.55-27.3 540.65-30.15 541.65-30.15 541.65-22.8 548.1-22.8 548.1-19.65ZM553.5 0L553.5-22.8 556.2-22.8 557.45-18.8 557.65-18.8Q560.4-22.35 565.2-23.1L565.2-23.1 565.65-19.15Q563.3-19 561.1-17.95 558.9-16.9 557.75-15.15L557.75-15.15 557.75 0 553.5 0ZM581.75-13.65L581.75-13.65 581.75-15.85Q581.75-19.9 577.55-19.9L577.55-19.9Q574.25-19.9 570.65-17.75L570.65-17.75 569.2-20.75Q573.4-23.4 578.25-23.4L578.25-23.4Q581.65-23.4 583.82-21.68 586-19.95 586-16.35L586-16.35 586 0 583.3 0 582.05-3Q580.45-1.35 578.25-0.38 576.05 0.6 574.25 0.6L574.25 0.6Q571.15 0.6 569.3-1.1 567.45-2.8 567.45-5.55L567.45-5.55Q567.45-13.65 581.75-13.65ZM573.45-8.8Q572.5-7.95 572.17-7.28 571.85-6.6 571.85-5.53 571.85-4.45 572.77-3.68 573.7-2.9 575.2-2.9L575.2-2.9Q578.35-2.9 581.75-5.7L581.75-5.7 581.75-10.7Q575.45-10.6 573.45-8.8L573.45-8.8ZM612.6-17.25L612.6-17.25 612.6 0 608.35 0 608.35-17.05Q608.35-18.35 607.32-19.05 606.3-19.75 604.6-19.75L604.6-19.75Q601.05-19.75 597.25-17.2L597.25-17.2 597.25 0 593 0 593-22.8 595.7-22.8 596.95-20.2Q600.8-23.4 605.3-23.4L605.3-23.4Q608.65-23.4 610.63-21.7 612.6-20 612.6-17.25ZM632.55-21.9L631.3-18.8Q628.75-19.9 626.5-19.9L626.5-19.9Q622.15-19.9 622.15-17.25L622.15-17.25Q622.15-14.95 627.95-12.8L627.95-12.8Q630.1-12 631.92-10.3 633.75-8.6 633.75-6.2L633.75-6.2Q633.75-2.75 631.5-1.07 629.25 0.6 625.25 0.6 621.25 0.6 617.45-1.6L617.45-1.6 618.7-4.7Q621.85-2.9 625.85-2.9L625.85-2.9Q627.55-2.9 628.6-3.63 629.65-4.35 629.65-5.6 629.65-6.85 628.45-7.75 627.25-8.65 625.55-9.35 623.85-10.05 622.15-10.88 620.45-11.7 619.25-13.2 618.05-14.7 618.05-16.75L618.05-16.75Q618.05-19.95 620.23-21.68 622.4-23.4 625.75-23.4 629.1-23.4 632.55-21.9L632.55-21.9ZM647.55-2.8L647.55-2.8Q651.3-2.8 653.35-5.35 655.4-7.9 655.4-11.58 655.4-15.25 653.63-17.5 651.85-19.75 648.75-19.75L648.75-19.75Q647.55-19.75 645.9-19.05 644.25-18.35 642.95-17.2L642.95-17.2 642.95-3.7Q645.3-2.8 647.55-2.8ZM642.95-0.1L642.95 11.5 638.8 11.5 638.8-22.8 641.5-22.8 642.65-20.2Q646.3-23.4 650.4-23.4 654.5-23.4 657.1-20.2 659.7-17 659.7-11.88 659.7-6.75 656.68-3.08 653.65 0.6 648.05 0.6L648.05 0.6Q645.55 0.6 642.95-0.1L642.95-0.1ZM674.75-20.15L674.75-20.15Q672.85-20.15 671.48-19.3 670.1-18.45 669.45-17.1L669.45-17.1Q668.25-14.55 668.25-11.65L668.25-11.65Q668.25-2.65 674.5-2.65L674.5-2.65Q676.4-2.65 677.75-3.5 679.1-4.35 679.8-5.7L679.8-5.7Q681-8.2 681-11.15L681-11.15Q681-20.15 674.75-20.15ZM674.75-23.4L674.75-23.4Q680.3-23.4 682.85-19.95 685.4-16.5 685.4-10.95L685.4-10.95Q685.4-6.95 683.3-3.55L683.3-3.55Q682.15-1.7 679.85-0.55 677.55 0.6 674.35 0.6L674.35 0.6Q668.85 0.6 666.35-2.7 663.85-6 663.85-11.55L663.85-11.55Q663.85-14.8 664.88-17.05 665.9-19.3 667.05-20.53 668.2-21.75 670.2-22.58 672.2-23.4 674.75-23.4ZM691.05 0L691.05-22.8 693.75-22.8 695-18.8 695.2-18.8Q697.95-22.35 702.75-23.1L702.75-23.1 703.2-19.15Q700.85-19 698.65-17.95 696.45-16.9 695.3-15.15L695.3-15.15 695.3 0 691.05 0ZM718.35-19.65L711.9-19.65 711.9-5.95Q711.9-2.95 714.75-2.95L714.75-2.95Q716.4-2.95 718.7-3.9L718.7-3.9 719.25-0.55Q716.8 0.6 714.1 0.6 711.4 0.6 709.6-1.03 707.8-2.65 707.8-6L707.8-6 707.8-19.65 704.65-19.65 704.65-22.8 707.8-22.8 707.8-27.3 710.9-30.15 711.9-30.15 711.9-22.8 718.35-22.8 718.35-19.65ZM736.25-13.65L736.25-13.65 736.25-15.85Q736.25-19.9 732.05-19.9L732.05-19.9Q728.75-19.9 725.15-17.75L725.15-17.75 723.7-20.75Q727.9-23.4 732.75-23.4L732.75-23.4Q736.15-23.4 738.33-21.68 740.5-19.95 740.5-16.35L740.5-16.35 740.5 0 737.8 0 736.55-3Q734.95-1.35 732.75-0.38 730.55 0.6 728.75 0.6L728.75 0.6Q725.65 0.6 723.8-1.1 721.95-2.8 721.95-5.55L721.95-5.55Q721.95-13.65 736.25-13.65ZM727.95-8.8Q727-7.95 726.68-7.28 726.35-6.6 726.35-5.53 726.35-4.45 727.28-3.68 728.2-2.9 729.7-2.9L729.7-2.9Q732.85-2.9 736.25-5.7L736.25-5.7 736.25-10.7Q729.95-10.6 727.95-8.8L727.95-8.8ZM759.05-19.65L752.6-19.65 752.6-5.95Q752.6-2.95 755.45-2.95L755.45-2.95Q757.1-2.95 759.4-3.9L759.4-3.9 759.95-0.55Q757.5 0.6 754.8 0.6 752.1 0.6 750.3-1.03 748.5-2.65 748.5-6L748.5-6 748.5-19.65 745.35-19.65 745.35-22.8 748.5-22.8 748.5-27.3 751.6-30.15 752.6-30.15 752.6-22.8 759.05-22.8 759.05-19.65ZM768.9-28.18Q768.1-27.35 766.95-27.35 765.8-27.35 765-28.18 764.2-29 764.2-30.15 764.2-31.3 765.03-32.13 765.85-32.95 766.95-32.95 768.05-32.95 768.88-32.13 769.7-31.3 769.7-30.15 769.7-29 768.9-28.18ZM764.85 0L764.85-22.8 769.1-22.8 769.1 0 764.85 0ZM786.05-20.15L786.05-20.15Q784.15-20.15 782.78-19.3 781.4-18.45 780.75-17.1L780.75-17.1Q779.55-14.55 779.55-11.65L779.55-11.65Q779.55-2.65 785.8-2.65L785.8-2.65Q787.7-2.65 789.05-3.5 790.4-4.35 791.1-5.7L791.1-5.7Q792.3-8.2 792.3-11.15L792.3-11.15Q792.3-20.15 786.05-20.15ZM786.05-23.4L786.05-23.4Q791.6-23.4 794.15-19.95 796.7-16.5 796.7-10.95L796.7-10.95Q796.7-6.95 794.6-3.55L794.6-3.55Q793.45-1.7 791.15-0.55 788.85 0.6 785.65 0.6L785.65 0.6Q780.15 0.6 777.65-2.7 775.15-6 775.15-11.55L775.15-11.55Q775.15-14.8 776.18-17.05 777.2-19.3 778.35-20.53 779.5-21.75 781.5-22.58 783.5-23.4 786.05-23.4ZM821.95-17.25L821.95-17.25 821.95 0 817.7 0 817.7-17.05Q817.7-18.35 816.68-19.05 815.65-19.75 813.95-19.75L813.95-19.75Q810.4-19.75 806.6-17.2L806.6-17.2 806.6 0 802.35 0 802.35-22.8 805.05-22.8 806.3-20.2Q810.15-23.4 814.65-23.4L814.65-23.4Q818-23.4 819.98-21.7 821.95-20 821.95-17.25ZM831.33-0.33Q830.55 0.45 829.45 0.45 828.35 0.45 827.6-0.33 826.85-1.1 826.85-2.25 826.85-3.4 827.6-4.15 828.35-4.9 829.45-4.9 830.55-4.9 831.33-4.15 832.1-3.4 832.1-2.25 832.1-1.1 831.33-0.33Z" opacity="1" transform="matrix(1,0,0,1,0,0)" fill="#ffe430" class="slogan-text-1" data-fill-palette-color="secondary" id="text-1"></path></svg></g></svg></g></svg></g></svg></g></svg></g></svg></g></svg></g><g><path d="M245.816 0c68.262 0 123.6 55.338 123.6 123.6 0 68.262-55.338 123.6-123.6 123.6-51.784 0-96.131-31.846-114.523-77.022l2.618 0c18.255 43.807 61.484 74.602 111.905 74.602 66.926 0 121.18-54.254 121.179-121.18 0-66.926-54.254-121.18-121.179-121.18-50.421 0-93.65 30.794-111.905 74.602l-2.618 0c18.392-45.176 62.739-77.022 114.523-77.022z" fill="#ffe430" stroke="transparent" data-fill-palette-color="tertiary"></path></g></svg></g><defs></defs></svg><rect width="395.52" height="247.2" fill="none" stroke="none" visibility="hidden"></rect></g></svg></g></svg>